<svg width="24" height="24" viewBox="0 0 24 24" fill="none" xmlns="http://www.w3.org/2000/svg">
<path d="M7 12H8C8.49751 12.0563 8.64669 12.6452 9 13C9.35331 13.3548 9.94573 13.5023 10 14C10.0427 14.3879 9.76815 14.6861 10 15C10.2318 15.3139 10.6418 15.8452 11 16H13M13 16L9 20C8.64779 20.3542 8.46122 20.8082 8 21C7.53878 21.1918 7.49951 21 7 21C6.50049 21 5.46122 21.1918 5 21C4.53878 20.8082 4.35221 20.3542 4 20C3.28675 19.2824 3 18.0118 3 17C3 15.9882 3.28675 14.7176 4 14L15 4L20 9L18 11M13 16L16 13M21 10L14 3" stroke="white" stroke-width="1.5" stroke-linecap="round"/>
</svg>
