<svg width="24" height="24" viewBox="0 0 24 24" fill="none" xmlns="http://www.w3.org/2000/svg">
<g clip-path="url(#clip0_427_57)">
<path d="M12 12V12C15.586 13.2342 19.953 12.047 23 9M12 12H11C7.6538 10.8472 3.8435 12.1565 1 15M12 12V12C10.7658 8.414 11.953 4.047 15 1M12 12V13C13.1528 16.3451 11.8435 20.1565 9 23M10 15L12 17M6 12L8 13M12 6L14 9M16 11L17 12M3 13L7 17M21 11L17 7M9 19L11 21M15 5L13 3" stroke="white" stroke-width="1.3" stroke-linecap="round"/>
</g>
<defs>
<clipPath id="clip0_427_57">
<rect width="24" height="24" fill="white"/>
</clipPath>
</defs>
</svg>
