<svg width="28" height="28" viewBox="0 0 28 28" fill="none" xmlns="http://www.w3.org/2000/svg">
<path d="M9 21C9.46413 21 9.67181 21.6249 10 22C10.3282 22.3751 11 22.4696 11 23C11 23.5304 10.3282 23.6249 10 24C9.67181 24.3751 9.46413 25 9 25C8.53587 25 8.32819 24.3751 8 24C7.67181 23.6249 7 23.5304 7 23C7 22.4696 7.67181 22.3751 8 22C8.32819 21.6249 8.53587 21 9 21ZM19 21C19.4641 21 19.6718 21.6249 20 22C20.3282 22.3751 21 22.4696 21 23C21 23.5304 20.3282 23.6249 20 24C19.6718 24.3751 19.4641 25 19 25C18.5359 25 18.3282 24.3751 18 24C17.6718 23.6249 18 23.5304 18 23C18 22.4696 17.6718 22.3751 18 22C18.3282 21.6249 18.5359 21 19 21Z" fill="white" stroke="white" stroke-width="1.75"/>
<path d="M2.00003 3C1.78021 2.92453 1.21013 2.90163 1.00003 3C0.789931 3.09837 1.07734 3.78541 1.00003 4C0.899262 3.7949 0.922722 4.21459 1.00003 4C1.1008 4.2051 1.78021 4.92453 2.00003 5V3ZM24 12H25H24ZM6.00003 12V8H4.00003V12H6.00003ZM2.00003 3V5V3ZM12 19H19V17H12V19ZM6.00003 8C6.00003 7.19203 6.05973 6.54741 6.00003 6C5.93564 5.43202 6.33015 5.47084 6.00003 5L4.00003 6C4.10539 6.15085 3.95438 6.58516 4.00003 7C4.04803 7.43427 4.00003 7.15432 4.00003 8H6.00003ZM2.00003 5C2.78202 5.26856 3.62191 4.81715 4.00003 5C4.35474 5.16914 3.89701 5.85258 4.00003 6L6.00003 5C5.66757 4.52459 4.51629 4.24799 4.00003 4C3.50836 3.76458 2.74222 3.25485 2.00003 3V5ZM4.00003 12C4.00003 13.6605 4.84082 14.0857 5.00003 15C5.17212 15.976 5.36203 17.3417 6.00003 18L7.00003 17C6.62542 16.6137 6.11944 15.68 6.00003 15C5.87126 14.2572 6.00003 13.7017 6.00003 12H4.00003ZM12 17C10.3412 17 9.86748 17.12 9.00003 17C8.16302 16.8846 7.31962 17.3291 7.00003 17L6.00003 18C6.6954 18.7165 6.95113 18.856 8.00003 19C9.0185 19.1417 10.3951 19 12 19V17ZM5.00003 8H20V7H5.00003V8ZM23 12L22 14L24 15L25 12H23ZM20 8C21.0021 8 21.3035 7.92457 22 8C22.3442 8.03962 22.8197 8.93753 23 9C23.0152 9.01943 23.1885 9.06514 23 9L25 8C24.7249 7.6503 23.3524 7.12 23 7C22.619 6.87756 22.3994 7.03706 22 7C21.1864 6.912 20.9693 7 20 7V8ZM25 12C25.199 11.0309 24.9591 9.6514 25 9C25.0433 8.33031 25.4472 8.56684 25 8L23 9C23.0305 8.51088 23.0726 9.09257 23 9C22.9684 9.50741 23.2084 10.9818 23 12H25ZM19 19C19.8921 19 20.396 19.072 21 19C21.6263 18.9257 21.5013 18.3966 22 18L21 17C20.8537 17.1166 21.4484 16.9474 21 17C20.5283 17.0571 19.9366 17 19 17V19ZM22 14C21.8104 14.8948 22.1522 15.56 22 16C21.856 16.4183 21.1464 16.8834 21 17L22 18C22.4999 17.6023 22.7987 17.5851 23 17C23.1944 16.4377 23.8197 15.8525 24 15L22 14Z" fill="white"/>
</svg>
