<svg width="257" height="42" viewBox="0 0 257 42" fill="none" xmlns="http://www.w3.org/2000/svg">
<path d="M61.0193 11.0008V31.0023H59.0193V22.0017H47.0193V31.0023H44.0193V11.0008H47.0193V20.0015H59.0193V11.0008H61.0193Z" fill="white"/>
<path d="M210.019 11.0008H208.019V31.0023H210.019V11.0008Z" fill="white"/>
<path d="M233.019 11.0008V13.001H227.019V31.0023H225.019V13.001H218.019V11.0008H233.019Z" fill="white"/>
<path d="M80.0193 10.0008C73.8591 10.0008 69.0193 14.8356 69.0193 21.0016C69.0193 27.1676 73.8591 32.0024 80.0193 32.0024C86.1796 32.0024 91.0193 27.1685 91.0193 21.0016C91.0193 14.8347 86.1804 10.0008 80.0193 10.0008ZM80.0193 30.0023C75.0129 30.0023 71.0193 26.0128 71.0193 21.0016C71.0193 15.9904 75.0129 12.0009 80.0193 12.0009C85.0258 12.0009 89.0193 15.9904 89.0193 21.0016C89.0193 26.0128 85.0258 30.0023 80.0193 30.0023Z" fill="white"/>
<path d="M113.019 22.0017C113.99 20.8787 114.019 19.4843 114.019 18.0014V17.0013C114.019 13.5953 111.421 11.0008 108.019 11.0008H98.0193V24.0018V31.0023H101.019V24.0018H106.019L111.019 31.0023H114.019L108.019 24.0018H109.019C110.46 23.7805 112.057 23.1134 113.019 22.0017ZM108.019 21.0016H101.019V13.001H108.019C110.11 13.001 112.019 14.9069 112.019 17.0013V18.0014C112.019 20.0957 110.11 21.0016 108.019 21.0016Z" fill="white"/>
<path d="M144.019 11.0008V31.0023H142.019V16.0012L141.019 15.0011L135.019 26.002H133.019L126.019 15.0011H125.019V24.0018H123.019V11.0008H127.019L134.019 23.0017L140.019 11.0008H144.019Z" fill="white"/>
<path d="M171.019 11.0008V23.0017C171.019 27.7064 166.719 32.0024 162.019 32.0024C157.32 32.0024 154.019 27.7064 154.019 23.0017V11.0008H156.019V23.0017C156.019 26.3948 158.63 30.0023 162.019 30.0023C163.657 30.0023 164.857 29.1647 166.019 28.0021C167.181 26.8387 168.019 24.6431 168.019 23.0017V16.0012V11.0008H171.019Z" fill="white"/>
<path d="M198.019 11.0008L197.019 31.0023H195.019L183.019 15.0011V31.0023H180.019V11.0008H183.019L195.019 27.002V11.0008H198.019Z" fill="white"/>
<path d="M248.019 22.0017V31.0023H246.019V22.0017L237.019 11.0008H240.019L247.019 19.0014L253.019 11.0008H256.019L248.019 22.0017Z" fill="white"/>
<path d="M126.019 30.0023C126.019 30.8738 124.889 32.0024 124.019 32.0024C123.15 32.0024 123.019 30.8738 123.019 30.0023C123.019 29.1308 123.15 29.0022 124.019 29.0022C124.889 29.0022 126.019 29.1316 126.019 30.0023Z" fill="white"/>
<path d="M16.0193 42.0032C17.2124 42.0032 19.0193 41.1994 19.0193 40.003C19.0193 38.8066 17.2124 38.0029 16.0193 38.0029C14.8263 38.0029 14.0193 38.8066 14.0193 40.003C14.0193 41.1994 14.8263 42.0032 16.0193 42.0032Z" fill="white"/>
<path d="M16.0193 4.0003C17.2124 4.0003 19.0193 3.19654 19.0193 2.00015C19.0193 0.803758 17.2124 0 16.0193 0C14.8263 0 14.0193 0.803758 14.0193 2.00015C14.0193 3.19654 14.8263 4.0003 16.0193 4.0003Z" fill="white"/>
<path d="M32.0193 20.0015C32.3295 20.3987 33.0817 20.5137 33.0193 21.0016C32.8918 21.9927 31.9553 23.0362 31.0193 23.0017C30.7372 22.9918 30.2951 23.0634 30.0193 23.0017C22.1278 21.2471 13.9814 20.6025 6.01935 22.0017C4.9496 22.1894 4.09451 22.8467 3.01935 23.0017C2.71461 23.0453 2.32499 23.0389 2.01935 23.0017C1.21727 22.9029 0.129667 21.805 0.0193472 21.0016C-0.0909728 20.1982 0.274235 19.3161 1.01935 19.0014C1.72558 18.7031 2.26881 18.8437 3.01935 19.0014C4.43452 19.2989 6.587 19.7984 8.01935 20.0015C15.2806 21.0289 22.8494 20.5475 30.0193 19.0014C30.6451 18.8663 30.4017 18.8364 31.0193 19.0014C31.4154 19.1075 31.7544 19.6615 32.0193 20.0015Z" fill="white"/>
<path d="M2.01935 29.0022C1.72817 28.8417 2.18844 29.2887 2.01935 29.0022C1.68839 28.44 1.69743 27.5697 2.01935 27.002C2.27164 26.5568 2.5211 26.1144 3.01935 26.002C3.561 25.8796 3.47769 25.8805 4.01935 26.002C11.9398 27.7765 21.1007 27.7819 29.0193 26.002C29.7346 25.8415 30.4135 25.5894 31.0193 26.002C31.6596 26.4372 31.2924 27.2794 31.0193 28.0021C30.7978 28.5879 30.7536 30.1809 30.0193 30.0023C23.3685 28.3783 15.8031 28.0827 9.01935 29.0022C7.8203 29.1645 7.21297 28.7991 6.01935 29.0022C5.20913 29.1391 3.82866 29.8653 3.01935 30.0023C2.70105 30.0059 2.29876 29.1563 2.01935 29.0022Z" fill="white"/>
<path d="M2.01935 16.0012C1.49216 15.7092 1.05823 14.605 1.01935 14.0011C0.977751 13.3509 1.46684 13.3428 2.01935 13.001C2.82052 12.5059 4.09881 12.8069 5.01935 13.001C13.1387 14.7166 21.9515 13.9441 30.0193 12.0009C30.7464 11.8259 30.7888 13.4171 31.0193 14.0011C31.3205 14.7636 31.7247 15.5714 31.0193 16.0012C30.4316 16.3594 29.6903 16.1517 29.0193 16.0012C21.8666 14.3935 14.239 13.7289 7.01935 15.0011C6.41982 15.1072 5.61073 15.8552 5.01935 16.0012C4.1612 16.2125 2.82505 16.3648 2.01935 16.0012C2.05913 16.023 1.97775 15.9822 2.01935 16.0012Z" fill="white"/>
<path d="M10.0193 9.00068C9.36376 9.25729 8.70568 9.10586 8.01935 9.00068C7.08886 8.85832 5.94791 7.94175 6.01935 7.00053C6.09078 6.05931 7.07711 6.00136 8.01935 6.00045C8.57095 6.00045 9.50482 5.79915 10.0193 6.00045C11.1931 6.46018 11.7715 6.82552 13.0193 7.00053C14.1967 7.16647 15.8311 7.03408 17.0193 7.00053C17.8196 6.97786 18.2263 7.11478 19.0193 7.00053C20.2437 6.82371 21.8664 6.4493 23.0193 6.00045C23.5348 5.80006 24.4668 6.00589 25.0193 6.00045C27.337 5.97597 27.4066 8.79303 25.0193 9.00068C24.3638 9.05781 23.637 9.23009 23.0193 9.00068C21.7055 8.51375 20.4065 8.18921 19.0193 8.0006C18.1377 7.88091 16.9091 7.98156 16.0193 8.0006C15.2489 8.01693 14.7825 7.8927 14.0193 8.0006C12.8022 8.17289 11.1732 8.57541 10.0193 9.00068C10.1297 8.95716 9.90903 9.04148 10.0193 9.00068Z" fill="white"/>
<path d="M23.0193 36.0027C22.9651 35.981 23.0736 36.0245 23.0193 36.0027C21.8963 35.5584 21.213 35.1858 20.0193 35.0026C19.0039 34.8467 17.0475 34.9999 16.0193 35.0026C15.059 35.0054 14.9706 34.8703 14.0193 35.0026C12.7163 35.184 11.2473 35.5285 10.0193 36.0027C9.51115 36.1995 8.56371 36.0018 8.01935 36.0027C7.07982 36.0045 6.09078 35.9411 6.01935 35.0026C5.94791 34.0641 7.09157 33.144 8.01935 33.0025C8.69935 32.8982 9.37099 32.7704 10.0193 33.0025C11.0999 33.3888 11.8872 33.8176 13.0193 34.0026C14.0538 34.1712 14.9713 34.0017 16.0193 34.0026C17.0095 34.0026 18.0391 34.1467 19.0193 34.0026C20.3423 33.8085 21.7588 33.4495 23.0193 33.0025C23.646 32.7803 24.3782 32.8284 25.0193 33.0025C27.0684 33.5592 27.0657 35.9129 25.0193 36.0027C24.5057 36.0254 23.4995 36.1977 23.0193 36.0027Z" fill="white"/>
</svg>
