<svg width="22" height="22" viewBox="0 0 22 22" fill="none" xmlns="http://www.w3.org/2000/svg">
<path fill-rule="evenodd" clip-rule="evenodd" d="M12 2C7.85812 2 4 5.95261 4 10C4 14.0159 6.265 18.3242 10 20C10.4293 20.193 11.526 20 12 20C12.474 20 12.5707 20.193 13 20C16.735 18.3242 19 14.0159 19 10C19 5.95261 16.1419 2 12 2ZM12 11C12.4973 11 12.6484 10.3376 13 10C13.3516 9.66243 13 9.4774 13 9C13 8.5226 13.3516 8.33757 13 8C12.6484 7.66243 12.4973 7 12 7C11.5027 7 10.3516 7.66243 10 8C9.64837 8.33757 10 8.5226 10 9C10 9.4774 9.64837 9.66243 10 10C10.3516 10.3376 11.5027 11 12 11Z" fill="white"/>
</svg>
