<svg width="24" height="24" viewBox="0 0 24 24" fill="none" xmlns="http://www.w3.org/2000/svg">
<path d="M13 1.00003C14.2374 1.00333 15.4577 0.984635 16 1.00003C16.2464 1.00883 16.7063 0.986835 17 1.00003C18.1703 1.05503 18.2993 1.72834 19 2.00003C19.726 2.27943 20.3884 2.38955 21 3.00004C21.5595 3.54973 21.7241 4.26577 22 5.00003C22.2717 5.70072 22.945 5.82856 23 7.00003C23.0132 7.29263 22.9912 7.75254 23 8.00003C23.0165 8.54122 22.9978 9.76257 23 11V12V13C23.0027 13.8024 23.0195 15.1979 23 16C22.9912 16.2475 23.0132 16.7074 23 17C22.945 18.1715 22.2706 18.2983 22 19C21.7241 19.7343 21.5595 20.4503 21 21C20.4503 21.5596 19.7342 21.7241 19 22C18.2993 22.2717 18.1703 22.945 17 23H16C15.4577 23.0154 14.2374 22.9978 13 23H12H11C10.1973 23.0029 8.80243 23.0197 8 23C7.73888 22.9901 7.26099 23.0129 7 23C5.82966 22.945 5.70176 22.2717 5 22C4.26615 21.724 3.54936 21.5595 3 21C2.44007 20.4505 2.2762 19.7344 2 19C1.72831 18.2994 1.055 18.1715 0.999999 17V16C0.979723 15.198 0.998054 13.8024 0.999999 13V11C0.996955 10.1977 0.980823 8.80213 0.999999 8.00003C1.0088 7.75254 0.9868 7.29263 0.999999 7.00003C1.055 5.82856 1.72831 5.70182 2 5.00003C2.27685 4.26547 2.43927 3.5494 3 3.00004C3.54904 2.44075 4.26654 2.27621 5 2.00003C5.70176 1.72834 5.82856 1.05503 7 1.00003C7.29258 0.986835 7.75361 1.00883 8 1.00003C8.80207 0.980492 10.1977 0.997357 11 1.00003H13ZM12 6.00003C10.5414 6.00003 9.0314 6.96861 8 8.00003C6.9686 9.03146 7 10.5414 7 12C7 13.4587 6.9686 14.9686 8 16C9.0314 17.0315 10.5414 17 12 17C13.4586 17 14.9686 17.0315 16 16C17.0314 14.9686 17 13.4587 17 12C17 10.5414 17.0314 9.03146 16 8.00003C14.9686 6.96861 13.4586 6.00003 12 6.00003ZM12 9.00004C12.4333 8.99996 12.5996 8.83427 13 9.00004C13.4004 9.1658 13.6935 9.69366 14 10C14.3065 10.3064 14.8341 10.5997 15 11C15.1659 11.4004 14.9999 11.5667 15 12C15.0001 12.4334 15.1658 12.5996 15 13C14.8342 13.4004 14.3064 13.6936 14 14C13.6936 14.3065 13.4003 14.8341 13 15C12.5997 15.1659 12.4333 15 12 15C11.1248 15 10.6188 14.6189 10 14C9.38116 13.3812 9 12.8752 9 12C9 11.1248 9.38116 10.6189 10 10C10.6188 9.38118 11.1248 9.00004 12 9.00004ZM18 5.00003C17.6353 5.00003 17.2578 4.74218 17 5.00003C16.7422 5.25789 16 5.63537 16 6.00003C16 6.3647 16.7422 6.74218 17 7.00003C17.2578 7.25789 17.6353 8.00003 18 8.00003C18.3647 8.00003 18.7422 7.25789 19 7.00003C19.2578 6.74218 19 6.3647 19 6.00003C19 5.63537 19.2578 5.25789 19 5.00003C18.7422 4.74218 18.3647 5.00003 18 5.00003Z" fill="white"/>
</svg>
