<svg width="22" height="22" viewBox="0 0 22 22" fill="none" xmlns="http://www.w3.org/2000/svg">
<path fill-rule="evenodd" clip-rule="evenodd" d="M3 4.99997C1.9452 6.09779 2 8.46466 2 12C2 15.5353 1.9452 16.9022 3 18C4.0548 19.0978 5.6061 19 9 19H13C16.3939 19 17.9461 19.0987 19 18C20.0539 16.9012 20 15.5353 20 12C20 8.46466 20.0548 6.09779 19 4.99997C17.9452 3.90216 16.3939 3.99997 13 3.99997H9C5.6061 3.99997 4.0539 3.90122 3 4.99997ZM17 6.99997C17.1145 7.14321 17.0162 7.81433 17 7.99997C16.9838 8.18562 17.1374 7.8806 17 7.99997L15 9.99997C14.2017 10.6937 13.5715 11.6175 13 12C12.406 12.3984 11.6669 12 11 12C10.3331 12 9.5949 12.3975 9 12C8.4294 11.6175 7.7983 10.6918 7 9.99997L5 7.99997C4.86239 7.88063 5.01628 8.18572 5 7.99997C4.98371 7.81422 4.88542 7.14331 5 6.99997C5.11457 6.85663 5.82168 7.01694 6 6.99997C5.86239 6.88063 6.17832 6.98301 6 6.99997L8 8.99997C8.8397 9.72841 9.5068 9.66997 10 9.99997C10.4761 10.3187 10.6895 11 11 11C11.3105 11 11.5239 10.3197 12 9.99997C12.4923 9.66997 13.1603 9.72841 14 8.99997L16 6.99997C15.8218 6.98292 16.1376 6.88079 16 6.99997C16.1782 7.01703 16.8855 6.85666 17 6.99997Z" fill="white"/>
</svg>
