<svg width="22" height="22" viewBox="0 0 22 22" fill="none" xmlns="http://www.w3.org/2000/svg">
<path d="M14.0001 13V14C14.0001 14 12.6936 14.8355 10.0001 12C7.30651 9.16445 9.00005 7.99997 9.00005 7.99997C9.64359 7.32185 9.56246 5.79476 9.00005 4.99997L8.00005 2.99997C7.30365 2.0156 5.79764 2.16052 5.00005 2.99997L4.00005 4.99997C3.60537 5.4165 2.96815 5.40115 3.00005 5.99997C3.08209 7.53121 3.35033 11.1564 7.00005 15C10.8713 19.0742 14.5152 19.1467 16.0001 19C16.4704 18.9544 17.671 18.3463 18.0001 18L19.0001 17C19.8751 16.0794 19.1194 14.6435 18.0001 14L17.0001 13C16.2654 12.578 14.5743 12.3957 14.0001 13ZM12.0001 1.99997C12.0145 1.91132 11.9528 1.07635 12.0001 0.999971C12.0473 0.923589 12.9272 1.05245 13.0001 0.999971C12.9126 1.02055 13.0729 0.947492 13.0001 0.999971C12.9114 0.985518 13.0875 0.97939 13.0001 0.999971C12.9609 0.990856 13.0228 1.00453 13.0001 0.999971C13.0784 1.01638 13.8645 0.96169 14.0001 0.999971C14.2708 1.07927 14.5461 1.79216 15.0001 1.99997C15.9079 2.4165 16.7458 2.74673 18.0001 3.99997C19.2543 5.25413 19.5835 6.09216 20.0001 6.99997C20.2079 7.45387 20.9208 7.72836 21.0001 7.99997C21.0398 8.13651 20.9711 8.86075 21.0001 8.99997C21.0301 9.18047 21.1053 8.85026 21.0001 8.99997C20.8948 9.14968 20.1801 9.96705 20.0001 9.99997C19.8216 10.0289 20.147 10.1054 20.0001 9.99997C19.8531 9.89457 20.0298 9.17831 20.0001 8.99997C19.981 8.89932 20.0302 9.09786 20.0001 8.99997C19.9069 8.68696 19.1375 8.29622 19.0001 7.99997C18.6446 7.22524 18.1285 6.12835 17.0001 4.99997C15.8716 3.87159 14.7758 3.35544 14.0001 2.99997C13.7041 2.86256 13.3128 2.09316 13.0001 1.99997C12.9041 1.97303 13.0973 2.02163 13.0001 1.99997C12.8211 1.96994 12.1068 2.14672 12.0001 1.99997C11.9734 2.17944 11.8934 1.85323 12.0001 1.99997Z" fill="white"/>
<path fill-rule="evenodd" clip-rule="evenodd" d="M12 3.99995C11.9466 4.06732 12.0235 3.91728 12 3.99995C11.925 4.04175 12.0533 3.93258 12 3.99995C12.075 3.95814 12.9147 4.00982 13 3.99995C12.9174 3.97638 13.0852 3.99008 13 3.99995C12.9361 3.97261 13.0389 4.01333 13 3.99995C13.1272 4.05404 13.7865 3.87345 14 3.99995C14.426 4.25295 14.316 5.31422 15 5.99995C15.6839 6.6848 16.7473 6.57333 17 6.99995C17.1263 7.21369 16.9459 7.87257 17 7.99995C16.9766 7.93113 17.0289 8.06659 17 7.99995C17 7.99995 16.6273 7.82023 16 7.99995H17C17.0442 8.16503 17.0835 8.85091 17 8.99995C16.9164 9.14898 17.1638 8.95185 17 8.99995C16.8362 9.04805 16.1507 9.08018 16 8.99995C15.8492 8.91972 16.0518 9.16281 16 8.99995V7.99995C15.9444 7.8751 16.0698 8.11742 16 7.99995C15.8057 7.67192 14.6099 7.61065 14 6.99995C13.3901 6.38925 13.3284 6.1945 13 5.99995C12.8589 5.91702 12.1513 5.06224 12 4.99995C11.8354 4.9504 12.0823 5.15099 12 4.99995C11.9176 4.8489 11.9526 4.16537 12 3.99995Z" fill="white"/>
</svg>
