<svg width="24" height="24" viewBox="0 0 24 24" fill="none" xmlns="http://www.w3.org/2000/svg">
<path d="M24 7.99997C24 7.99997 23.7219 5.73172 23 4.99997C22.0859 4.03691 20.4688 4.05663 20 3.99997C16.6437 3.75449 12 3.99997 12 3.99997C12 3.99997 7.35625 3.75449 4 3.99997C3.53125 4.05663 1.91406 4.03691 1 4.99997C0.278125 5.73172 0 7.99997 0 7.99997C0 7.99997 0 10.0455 0 12V13C0 14.9544 0 17 0 17C0 17 0.282812 19.2682 1 20C1.91406 20.963 3.46563 20.8961 4 21C5.92188 21.1841 12 21 12 21C12 21 16.6437 21.2407 20 21C20.4688 20.9433 22.0859 20.963 23 20C23.7219 19.2682 24 17 24 17C24 17 24 14.9592 24 13V12C24 10.0455 24 7.99997 24 7.99997ZM10 16V8.99997L16 12L10 16Z" fill="white"/>
</svg>
