<svg width="13" height="13" viewBox="0 0 13 13" fill="none" xmlns="http://www.w3.org/2000/svg">
<path d="M6.02181 0.0273628C6.09298 0.0699142 6.99182 -0.0516433 7.02181 0.0273628C7.05179 0.106369 7.04607 -0.0537067 7.02181 0.0273628L4.02181 5.02736H8.02181C8.09283 5.02733 7.96246 4.98714 8.02181 5.02736C8.08116 5.06758 7.99365 4.96013 8.02181 5.02736C8.04996 5.0946 8.03412 4.95523 8.02181 5.02736C8.0095 5.09949 8.07053 5.97408 8.02181 6.02736L2.02181 12.0274C1.96551 12.0891 2.10312 12.0152 2.02181 12.0274C1.94049 12.0396 2.09283 12.07 2.02181 12.0274C1.95078 11.9847 1.05169 12.1063 1.02181 12.0274C0.991925 11.9484 0.997571 12.1083 1.02181 12.0274L4.02181 7.02736H0.0218073C-0.049212 7.02739 0.081158 7.06758 0.0218073 7.02736C-0.0375434 6.98714 0.0499604 7.0946 0.0218073 7.02736C-0.00634586 6.96013 0.00949928 7.09949 0.0218073 7.02736C0.0341153 6.95523 -0.026912 6.08065 0.0218073 6.02736L6.02181 0.0273628C6.07803 -0.0342843 5.94061 0.0396172 6.02181 0.0273628C6.10301 0.0151085 5.95081 -0.0150849 6.02181 0.0273628Z" fill="white"/>
</svg>
