<svg width="18" height="18" viewBox="0 0 18 18" fill="none" xmlns="http://www.w3.org/2000/svg">
<path d="M3 13.0001C1.91572 11.774 1 9.99431 1 8.00006C1 5.9714 2.35237 3.75781 4 3.00006C5.68484 2.22584 7.18419 3.1023 9 5.00006C10.8173 3.10305 12.3152 2.22584 14 3.00006C15.6484 3.75781 17 5.9714 17 8.00006C17 9.99431 16.0843 11.7733 15 13.0001C13.9358 14.2051 13.0612 15.1585 12 16.0001C11.6182 16.3023 10.4153 16.7562 10 17.0001C9.58549 17.2432 9.51349 17.0001 9 17.0001C8.48651 17.0001 8.41451 17.2439 8 17.0001C7.58549 16.7562 6.38177 16.3023 6 16.0001C4.93879 15.1593 4.06419 14.2044 3 13.0001Z" fill="#D05E3E"/>
<path d="M9 5.00006C7.18419 3.1023 5.68484 2.22584 4 3.00006C2.35237 3.75781 1 5.9714 1 8.00006C1 9.99431 1.91572 11.774 3 13.0001C4.06419 14.2044 4.93879 15.1593 6 16.0001C6.38177 16.3023 7.58549 16.7562 8 17.0001C8.41451 17.2439 8.48651 17.0001 9 17.0001C9.51349 17.0001 9.58549 17.2432 10 17.0001C10.4153 16.7562 11.6182 16.3023 12 16.0001C13.0612 15.1585 13.9358 14.2051 15 13.0001C16.0843 11.7733 17 9.99431 17 8.00006C17 5.9714 15.6484 3.75781 14 3.00006C12.3152 2.22584 10.8173 3.10305 9 5.00006" stroke="#D05E3E" stroke-width="0.36"/>
</svg>
