<svg width="24" height="24" viewBox="0 0 24 24" fill="none" xmlns="http://www.w3.org/2000/svg">
<path fill-rule="evenodd" clip-rule="evenodd" d="M12 5.00001C14.3421 3.00263 16.8509 3.02805 19 4.00001C21.2996 5.04058 22.9999 7.23032 23 10C23 12.7116 21.4858 14.3451 20 16C18.548 17.6185 17.4206 18.8911 16 20C15.4866 20.4001 14.5745 20.6679 14 21C13.4267 21.3309 12.744 22 12 22C11.2559 22 10.5738 21.3323 10 21C9.42661 20.668 8.51359 20.4002 8 20C6.57918 18.8919 5.45197 17.6174 4 16C2.51416 14.3461 1 12.7115 1 10C1.00012 7.23028 2.70146 5.04056 5 4.00001C7.14848 3.02831 9.65949 3.00321 12 5.00001ZM18 5.00001C16.4678 4.30693 15.0157 4.92906 13 7.00001C12.9111 7.09112 12.1178 6.95044 12 7.00001C11.8819 7.04966 12.1283 7.00001 12 7.00001C11.8717 7.00001 12.1181 7.04966 12 7.00001C11.8822 6.95044 11.0889 7.09112 11 7.00001C8.98446 4.92861 7.53216 4.30696 6 5.00001C4.40804 5.72064 3.00012 7.93767 3 10C3 12.1223 3.7288 13.5819 5 15C5.97905 16.0902 6.82946 17.1052 8 18L10 19C10.3739 19.2858 10.6694 19.8094 11 20C11.4395 20.2549 11.7395 20 12 20C12.2603 20 12.5586 20.2545 13 20C13.4408 19.7458 13.4697 19.414 14 19L16 18C17.1705 17.1052 18.021 16.0902 19 15C20.2714 13.5818 21 12.1225 21 10C20.9999 7.9367 19.592 5.72064 18 5.00001Z" fill="#1F1F1F" fill-opacity="0.75"/>
</svg>
